<svg xmlns="http://www.w3.org/2000/svg" viewBox="0 0 128 128"><path fill="#f58220" d="M64.142 102.96H39.24V78.522h24.903v24.438zM39.24 122.131H20.373v-18.866H39.24v18.866zm93.738-31.915h-19.58V59.376h19.58v30.84zm-73.076 0H39.24V59.376h20.662v30.84zm-31.63 0H7.609V59.376h20.663V90.216zm0-49.618H7.609V20.131h20.663V40.598zm93.076 0h-19.58V20.131h19.58V40.598z"/><path fill="#f58220" d="M113.013 68.785c-4.915 0-8.91 3.995-8.91 8.91s3.995 8.91 8.91 8.91 8.91-3.995 8.91-8.91-3.995-8.91-8.91-8.91zm-92.099 31.666c-4.915 0-8.91 3.995-8.91 8.91s3.995 8.91 8.91 8.91c4.916 0 8.91-3.995 8.91-8.91s-3.994-8.91-8.91-8.91zm0-31.666c-4.915 0-8.91 3.995-8.91 8.91s3.995 8.91 8.91 8.91c4.916 0 8.91-3.995 8.91-8.91s-3.994-8.91-8.91-8.91zm0-40.284c-4.915 0-8.91 3.995-8.91 8.91s3.995 8.91 8.91 8.91c4.916 0 8.91-3.995 8.91-8.91s-3.994-8.91-8.91-8.91zm92.099 0c-4.915 0-8.91 3.995-8.91 8.91s3.995 8.91 8.91 8.91 8.91-3.995 8.91-8.91-3.995-8.91-8.91-8.91zM52.049 68.785c-4.915 0-8.91 3.995-8.91 8.91s3.995 8.91 8.91 8.91 8.91-3.995 8.91-8.91-3.995-8.91-8.91-8.91zm0 31.666c-4.915 0-8.91 3.995-8.91 8.91s3.995 8.91 8.91 8.91 8.91-3.995 8.91-8.91-3.995-8.91-8.91-8.91z"/></svg>
