<svg xmlns="http://www.w3.org/2000/svg" viewBox="0 0 128 128"><path fill="#F0652A" d="M124.8 52.1c-4.3-2.5-10-2.8-14.8-1.4-.6-5.2-4-9.7-8-12.9l-1.6-1.3-1.4 1.6c-2.7 3.1-3.5 8.3-3.1 12.3.3 2.9 1.2 5.9 3 8.3-1.4.8-2.9 1.9-4.3 2.4-2.8 1-5.9 2-8.9 2H79V62H66v-4H41v-6H55V42H29v10H17v4H5.8c-.4 4.1.1 8.3 1.4 12.2.8 2.4 2 4.7 3.5 6.8 3.8 5.3 9.4 8.5 15.6 9.9 2 .5 4.1.7 6.2.8 2.6.1 5.3-.1 7.9-.5 4.8-.8 9.4-2.4 13.5-4.8 3.4-1.9 6.4-4.4 9-7.2 4.3-4.7 7.4-10.3 9.3-16.3h.8c4.4 0 8.8-.8 12.4-3.1 1.8-1.1 3.4-2.6 4.5-4.5l.4-.8-.6-.4z"/><path fill="#303030" d="M47 76H25.7c-.4 0-.7-.3-.7-.7V71h22v5zM35 69H22.7c-.4 0-.7-.3-.7-.7V64h13v5zM47 64H35v5h11.3c.4 0 .7-.3.7-.7V64zM22 71h-6.3c-.4 0-.7.3-.7.7v3.6c0 .4.3.7.7.7H22v-5z"/></svg>
