<svg xmlns="http://www.w3.org/2000/svg" viewBox="0 0 128 128"><path fill="#007acc" d="M2 63.91v62.5h125v-125H2zm100.73-5a15.56 15.56 0 017.82 4.5 20.58 20.58 0 013 4c0 .16-5.4 3.81-8.69 5.85-.12.08-.6-.44-1.13-1.23a6.85 6.85 0 00-5.69-3.48c-3.64-.29-6 1.36-6 4.17a3.89 3.89 0 00.49 2.06c.75 1.47 2.15 2.36 6.8 4.32 8.57 3.6 12.23 5.95 14.44 9.3a15.59 15.59 0 011.49 11.91 16.06 16.06 0 01-6.87 9.34c-2.29 1.56-4.72 2.43-9.12 3.24a42.56 42.56 0 01-10.33-.35 22.78 22.78 0 01-11.23-5.56 24.19 24.19 0 01-3.43-4.85c.14-.11 1-.7 1.89-1.32l5.31-3.06 1.74-1 1.29 1.9a14.25 14.25 0 007 5.51c4.6 1.09 11.13-.12 11.13-4.09a4.29 4.29 0 00-2.4-3.88c-1.54-.76-4.41-1.76-9.66-4.16-6-2.74-8.6-4.46-10.58-7a14.58 14.58 0 01-2-11.25A14.48 14.48 0 0189 50.92a27.13 27.13 0 0113.73-.86zm-44.52 11.47h9c-.06 1.78-.06 3.38-.06 5.12v31.71h14.1v8.14H58.21V69.38c0-1.74 0-3.29-.06-5z"/></svg>
